<?xml version="1.0" standalone="no"?>
<!DOCTYPE svg PUBLIC "-//W3C//DTD SVG 20010904//EN"
 "http://www.w3.org/TR/2001/REC-SVG-20010904/DTD/svg10.dtd">
<svg version="1.0" xmlns="http://www.w3.org/2000/svg"
 width="256.000000pt" height="256.000000pt" viewBox="0 0 256.000000 256.000000"
 preserveAspectRatio="xMidYMid meet">
<metadata>
Created by potrace 1.14, written by Peter Selinger 2001-2017
</metadata>
<g transform="translate(0.000000,256.000000) scale(0.100000,-0.100000)"
fill="#000000" stroke="none">
<path d="M219 2452 c-39 -20 -62 -41 -84 -77 l-30 -48 -3 -771 c-3 -852 -5
-818 61 -886 61 -63 89 -69 307 -70 l195 -1 82 -77 c45 -42 135 -136 201 -208
94 -102 123 -142 132 -175 7 -24 14 -50 16 -56 3 -10 78 -13 333 -13 l330 0
35 46 c81 105 118 217 124 366 l4 116 193 4 193 3 44 30 c50 36 84 83 98 136
7 25 10 301 8 791 -3 750 -3 753 -25 793 -11 22 -34 52 -50 67 -64 61 -8 58
-1107 58 l-1004 0 -53 -28z m2079 -18 c36 -15 102 -70 102 -86 0 -4 -9 -8 -20
-8 -20 0 -20 -7 -20 -800 0 -793 0 -800 20 -800 11 0 20 -4 20 -8 0 -16 -66
-71 -102 -87 l-38 -15 0 35 0 35 -163 0 -164 0 -6 113 c-4 61 -7 188 -7 280 0
186 -5 208 -62 250 -18 14 -51 28 -73 32 -26 4 -54 20 -81 45 -41 38 -94 60
-145 60 -19 0 -33 10 -52 38 -45 68 -130 91 -194 52 -45 -27 -65 -62 -61 -107
l3 -38 -60 -6 c-113 -10 -138 -38 -154 -170 -11 -86 -9 -252 4 -346 5 -36 4
-53 -3 -53 -7 0 -9 -23 -5 -69 4 -43 2 -71 -5 -75 -6 -3 -34 21 -62 53 -64 74
-99 91 -183 91 -81 0 -121 -25 -157 -97 l-25 -52 -182 0 -182 -1 -3 -27 -3
-28 -46 47 c-27 27 -49 60 -53 79 -8 42 -8 1497 0 1539 8 37 92 126 126 133
13 2 468 5 1011 6 872 1 992 -1 1025 -15z m129 -1266 c-1 -205 -2 -38 -2 372
0 410 1 577 2 373 2 -205 2 -541 0 -745z m-988 369 l34 -23 -2 -347 c-2 -310
-1 -347 13 -347 14 0 16 34 16 310 l0 310 25 6 c37 9 106 -4 135 -26 l25 -19
3 -301 c3 -223 7 -300 15 -297 9 3 13 81 17 273 l5 269 44 -3 c55 -3 77 -15
101 -55 19 -30 20 -54 20 -460 l0 -428 -25 -75 c-32 -95 -57 -144 -96 -189
l-31 -35 -307 0 -307 0 -12 45 c-13 48 -44 85 -320 380 -110 117 -132 145
-132 171 0 64 74 121 143 110 62 -10 89 -29 177 -126 46 -49 87 -90 91 -90 5
0 9 166 9 368 l0 369 23 20 c33 31 62 43 101 43 67 0 64 18 58 -296 -4 -259
-3 -284 12 -284 14 0 16 32 16 354 l0 354 33 21 c42 27 75 26 116 -2z"/>
<path d="M918 2183 l-628 -3 0 -665 0 -665 30 0 30 0 0 635 0 635 931 0 930 0
-3 33 -3 32 -330 0 c-181 0 -612 -1 -957 -2z"/>
<path d="M1784 324 c-73 -73 -143 -114 -242 -144 -61 -19 -90 -21 -180 -18
-59 3 -115 8 -124 12 -15 7 -18 3 -18 -23 l0 -31 257 2 257 3 31 41 c28 36 95
210 84 217 -2 1 -32 -25 -65 -59z"/>
</g>
</svg>
